REM DIRINDEX 1\6,1\2\7,1\2\8,1\2\9,1\3\10,1\3\11,1\4\12,1\4\13,1\4\14,1\5\15,1\5\16,1\5\17
REM DIRNAME folder01,folder02,folder03,folder04,folder05,folder06,folder07,folder08,folder09,folder10,folder11,folder12,folder13,folder14,folder15,folder16,folder17
TITLE ""
FILE "P2Q_t_0090-0107.mp3" MP3
  TRACK 01 AUDIO
    TITLE "10:cjc040_1828"
    INDEX 01 00:00:00
  TRACK 02 AUDIO
    TITLE "0:"
    INDEX 01 00:00:74
  TRACK 03 AUDIO
    TITLE "11:cjc040_1829"
    INDEX 01 00:01:52
  TRACK 04 AUDIO
    TITLE "0:"
    INDEX 01 00:03:49
  TRACK 05 AUDIO
    TITLE "10:cjc040_1830"
    INDEX 01 00:04:29
  TRACK 06 AUDIO
    TITLE "0:"
    INDEX 01 00:05:40
  TRACK 07 AUDIO
    TITLE "11:cjc040_1831"
    INDEX 01 00:06:08
  TRACK 08 AUDIO
    TITLE "0:"
    INDEX 01 00:07:21
  TRACK 09 AUDIO
    TITLE "10:cjc040_1832"
    INDEX 01 00:07:74
  TRACK 10 AUDIO
    TITLE "0:"
    INDEX 01 00:08:73
  TRACK 11 AUDIO
    TITLE "11:cjc040_1833"
    INDEX 01 00:09:53
  TRACK 12 AUDIO
    TITLE "0:"
    INDEX 01 00:10:59
  TRACK 13 AUDIO
    TITLE "10:cjc040_1834"
    INDEX 01 00:11:33
  TRACK 14 AUDIO
    TITLE "0:"
    INDEX 01 00:12:56
  TRACK 15 AUDIO
    TITLE "11:cjc040_1835"
    INDEX 01 00:13:35
  TRACK 16 AUDIO
    TITLE "0:"
    INDEX 01 00:16:51
  TRACK 17 AUDIO
    TITLE "10:cjc040_1836"
    INDEX 01 00:17:31
  TRACK 18 AUDIO
    TITLE "0:"
    INDEX 01 00:18:50
  TRACK 19 AUDIO
    TITLE "11:cjc040_1837"
    INDEX 01 00:19:32
  TRACK 20 AUDIO
    TITLE "0:"
    INDEX 01 00:21:37
  TRACK 21 AUDIO
    TITLE "10:cjc040_1838"
    INDEX 01 00:22:17
  TRACK 22 AUDIO
    TITLE "0:"
    INDEX 01 00:23:24
  TRACK 23 AUDIO
    TITLE "11:cjc040_1839"
    INDEX 01 00:24:08
  TRACK 24 AUDIO
    TITLE "0:"
    INDEX 01 00:27:39
  TRACK 25 AUDIO
    TITLE "10:cjc040_1840"
    INDEX 01 00:28:21
  TRACK 26 AUDIO
    TITLE "0:"
    INDEX 01 00:29:36
  TRACK 27 AUDIO
    TITLE "11:cjc040_1841"
    INDEX 01 00:30:22
  TRACK 28 AUDIO
    TITLE "0:"
    INDEX 01 00:32:19
  TRACK 29 AUDIO
    TITLE "10:cjc040_1842"
    INDEX 01 00:33:01
  TRACK 30 AUDIO
    TITLE "0:"
    INDEX 01 00:33:73
  TRACK 31 AUDIO
    TITLE "11:cjc040_1843"
    INDEX 01 00:34:63
  TRACK 32 AUDIO
    TITLE "0:"
    INDEX 01 00:38:16
  TRACK 33 AUDIO
    TITLE "10:cjc040_1844"
    INDEX 01 00:38:73
  TRACK 34 AUDIO
    TITLE "0:"
    INDEX 01 00:40:05
  TRACK 35 AUDIO
    TITLE "11:cjc040_1845"
    INDEX 01 00:40:66
  TRACK 36 AUDIO
    TITLE "0:"
    INDEX 01 00:44:03
  TRACK 37 AUDIO
    TITLE "10:cjc040_1846"
    INDEX 01 00:44:61
  TRACK 38 AUDIO
    TITLE "0:"
    INDEX 01 00:45:71
  TRACK 39 AUDIO
    TITLE "11:cjc040_1847"
    INDEX 01 00:46:54
  TRACK 40 AUDIO
    TITLE "0:"
    INDEX 01 00:49:18
  TRACK 41 AUDIO
    TITLE "10:cjc040_1848"
    INDEX 01 00:49:69
  TRACK 42 AUDIO
    TITLE "0:"
    INDEX 01 00:51:07
  TRACK 43 AUDIO
    TITLE "11:cjc040_1849"
    INDEX 01 00:51:62
  TRACK 44 AUDIO
    TITLE "0:"
    INDEX 01 00:54:46
  TRACK 45 AUDIO
    TITLE "10:cjc040_1850"
    INDEX 01 00:55:20
  TRACK 46 AUDIO
    TITLE "0:"
    INDEX 01 00:56:39
  TRACK 47 AUDIO
    TITLE "11:cjc040_1851"
    INDEX 01 00:57:19
  TRACK 48 AUDIO
    TITLE "0:"
    INDEX 01 01:01:58
  TRACK 49 AUDIO
    TITLE "10:cjc040_1852"
    INDEX 01 01:02:34
  TRACK 50 AUDIO
    TITLE "0:"
    INDEX 01 01:03:49
  TRACK 51 AUDIO
    TITLE "11:cjc040_1853"
    INDEX 01 01:04:25
  TRACK 52 AUDIO
    TITLE "0:"
    INDEX 01 01:05:69
  TRACK 53 AUDIO
    TITLE "10:cjc040_1854"
    INDEX 01 01:06:45
  TRACK 54 AUDIO
    TITLE "0:"
    INDEX 01 01:07:47
  TRACK 55 AUDIO
    TITLE "11:cjc040_1855"
    INDEX 01 01:08:29
  TRACK 56 AUDIO
    TITLE "0:"
    INDEX 01 01:14:00
  TRACK 57 AUDIO
    TITLE "10:cjc040_1856"
    INDEX 01 01:14:57
  TRACK 58 AUDIO
    TITLE "0:"
    INDEX 01 01:15:72
  TRACK 59 AUDIO
    TITLE "11:cjc040_1857"
    INDEX 01 01:16:58
  TRACK 60 AUDIO
    TITLE "0:"
    INDEX 01 01:18:17
  TRACK 61 AUDIO
    TITLE "10:cjc040_1858"
    INDEX 01 01:18:70
  TRACK 62 AUDIO
    TITLE "0:"
    INDEX 01 01:20:20
  TRACK 63 AUDIO
    TITLE "11:cjc040_1859"
    INDEX 01 01:21:00
  TRACK 64 AUDIO
    TITLE "0:"
    INDEX 01 01:22:46
  TRACK 65 AUDIO
    TITLE "10:cjc040_1860"
    INDEX 01 01:23:24
  TRACK 66 AUDIO
    TITLE "0:"
    INDEX 01 01:24:45
  TRACK 67 AUDIO
    TITLE "11:cjc040_1861"
    INDEX 01 01:25:25
  TRACK 68 AUDIO
    TITLE "0:"
    INDEX 01 01:28:14
  TRACK 69 AUDIO
    TITLE "10:cjc040_1862"
    INDEX 01 01:28:71
  TRACK 70 AUDIO
    TITLE "0:"
    INDEX 01 01:30:11
  TRACK 71 AUDIO
    TITLE "11:cjc040_1863"
    INDEX 01 01:31:02
  TRACK 72 AUDIO
    TITLE "0:"
    INDEX 01 01:33:46
